<?xml version="1.0" encoding="utf-8"?>
<!-- Generator: Adobe Illustrator 19.1.0, SVG Export Plug-In . SVG Version: 6.00 Build 0)  -->
<svg version="1.1" id="Layer_1" xmlns="http://www.w3.org/2000/svg" xmlns:xlink="http://www.w3.org/1999/xlink" x="0px" y="0px"
	 viewBox="0 0 259.2 72.3" style="enable-background:new 0 0 259.2 72.3;" xml:space="preserve">
<style type="text/css">
	.st0{fill:#002D4A;}
	.st1{fill:#4EB4BE;}
	.st2{fill:#47B3BE;}
</style>
<symbol  id="New_Symbol" viewBox="-111.3 -72.5 222.7 145">
	<path d="M-43.8,16.3c0-6.3-5.1-11.3-11.3-11.3H-100c-6.3,0-11.3,5.1-11.3,11.3v44.8c0,6.3,5.1,11.3,11.3,11.3h44.8
		c6.3,0,11.3-5.1,11.3-11.3V16.3z"/>
	<path d="M33.8,16.3C33.8,10.1,28.7,5,22.4,5h-44.8c-6.3,0-11.3,5.1-11.3,11.3v44.8c0,6.3,5.1,11.3,11.3,11.3h44.8
		c6.3,0,11.3-5.1,11.3-11.3V16.3z"/>
	<path d="M111.3,16.3c0-6.3-5.1-11.3-11.3-11.3H55.1c-6.3,0-11.3,5.1-11.3,11.3v44.8c0,6.3,5.1,11.3,11.3,11.3h44.8
		c6.3,0,11.3-5.1,11.3-11.3V16.3z"/>
	<path d="M-43.8-61.2c0-6.3-5.1-11.3-11.3-11.3h-44.8c-6.3,0-11.3,5.1-11.3,11.3v44.8c0,6.3,5.1,11.3,11.3,11.3h44.8
		c6.3,0,11.3-5.1,11.3-11.3V-61.2z"/>
	<path d="M33.8-61.2c0-6.3-5.1-11.3-11.3-11.3h-44.8c-6.3,0-11.3,5.1-11.3,11.3v44.8c0,6.3,5.1,11.3,11.3,11.3h44.8
		c6.3,0,11.3-5.1,11.3-11.3V-61.2z"/>
	<path d="M111.3-61.2c0-6.3-5.1-11.3-11.3-11.3H55.2c-6.3,0-11.3,5.1-11.3,11.3v44.8C43.8-10.1,48.9-5,55.2-5H100
		c6.3,0,11.3-5.1,11.3-11.3V-61.2z"/>
</symbol>
<symbol  id="New_Symbol_1" viewBox="-227.7 -72.5 455.3 145">
	
		<use xlink:href="#New_Symbol"  width="222.7" height="145" x="-111.3" y="-72.5" transform="matrix(1 0 0 1 -116.3276 -7.000000e-04)" style="overflow:visible;"/>
	
		<use xlink:href="#New_Symbol"  width="222.7" height="145" id="XMLID_3_" x="-111.3" y="-72.5" transform="matrix(1 0 0 1 116.3276 7.000000e-04)" style="overflow:visible;"/>
</symbol>
<g>
	<path class="st0" d="M59.2,51.3c-1.5,1.5-3.8,2.4-6.4,2.4c-2.7,0-4.6-0.7-6.3-2.6v11.9h-6.5V27.3h6.3v2.4c1.8-2,3.8-2.8,6.5-2.8
		c2.5,0,4.9,0.9,6.4,2.4c2.6,2.6,2.7,7,2.7,11C61.9,44.2,61.8,48.7,59.2,51.3z M51,32.8c-3.9,0-4.4,3.2-4.4,7.5s0.5,7.5,4.4,7.5
		c3.9,0,4.4-3.3,4.4-7.5S54.9,32.8,51,32.8z"/>
	<path class="st0" d="M70.7,42.3c0,3.3,2.1,5.8,5.7,5.8c2.9,0,4.3-0.8,5.9-2.5l4,3.9c-2.6,2.7-5.2,4.1-9.9,4.1
		c-6.2,0-12.1-2.8-12.1-13.4c0-8.5,4.6-13.3,11.4-13.3C82.9,27,87,32.3,87,39.4v2.9H70.7z M80,35.1c-0.7-1.6-2.2-2.7-4.4-2.7
		s-3.6,1.2-4.4,2.7c-0.4,0.9-0.5,1.6-0.6,2.8h9.9C80.5,36.7,80.4,36,80,35.1z"/>
	<path class="st0" d="M104.6,34.4c-1-1-1.9-1.5-3.5-1.5c-2,0-4.2,1.5-4.2,4.8v15.7h-6.5V27.3h6.4v2.5c1.2-1.5,3.8-2.8,6.6-2.8
		c2.6,0,4.4,0.7,6.2,2.5L104.6,34.4z"/>
	<path class="st0" d="M141,53.3V37.6c0-3.6-2.2-4.8-4.3-4.8c-2,0-4.4,1.2-4.4,4.6v15.9h-6.5V37.6c0-3.6-2.3-4.8-4.3-4.8
		c-2.1,0-4.4,1.2-4.4,4.8v15.8h-6.5V27.3h6.4v2.4c1.7-1.8,4.1-2.7,6.5-2.7c2.9,0,5.3,1.1,6.9,3.3c2.2-2.3,4.6-3.3,7.8-3.3
		c2.6,0,5,0.9,6.4,2.3c2.1,2.1,2.9,4.6,2.9,7.4v16.7H141z"/>
	<path class="st0" d="M165.4,53.3v-2.2c-1.8,1.8-3.4,2.5-6.4,2.5c-3,0-5.1-0.8-6.7-2.3c-1.4-1.5-2.1-3.5-2.1-5.9
		c0-4.2,2.8-7.6,8.9-7.6h6.2v-1.3c0-2.9-1.4-4.1-4.9-4.1c-2.5,0-3.7,0.6-5,2.1l-4.2-4c2.5-2.8,5-3.6,9.4-3.6
		c7.3,0,11.1,3.1,11.1,9.2v17.2H165.4z M165.2,42.3h-5.2c-2.4,0-3.7,1.1-3.7,3c0,1.8,1.2,3,3.8,3c1.8,0,3-0.1,4.1-1.2
		c0.7-0.6,1-1.7,1-3.3V42.3z"/>
	<path class="st0" d="M195.4,51.3c-1.5,1.5-3.8,2.4-6.4,2.4c-2.8,0-4.7-0.8-6.5-2.8v2.4h-6.3V17.7h6.5v11.9c1.7-1.9,3.7-2.6,6.3-2.6
		c2.5,0,4.9,0.9,6.4,2.4c2.6,2.6,2.7,7,2.7,11C198,44.2,198,48.7,195.4,51.3z M187.1,32.8c-3.9,0-4.4,3.2-4.4,7.5s0.5,7.5,4.4,7.5
		c3.9,0,4.4-3.3,4.4-7.5S191,32.8,187.1,32.8z"/>
	<path class="st0" d="M215.1,53.3v-2.2c-1.8,1.8-3.4,2.5-6.4,2.5c-3,0-5.1-0.8-6.7-2.3c-1.4-1.5-2.1-3.5-2.1-5.9
		c0-4.2,2.9-7.6,8.9-7.6h6.2v-1.3c0-2.9-1.4-4.1-4.9-4.1c-2.5,0-3.6,0.6-5,2.1l-4.2-4c2.6-2.8,5.1-3.6,9.4-3.6
		c7.3,0,11.1,3.1,11.1,9.2v17.2H215.1z M214.9,42.3h-5.2c-2.3,0-3.6,1.1-3.6,3c0,1.8,1.2,3,3.8,3c1.8,0,3-0.1,4.1-1.2
		c0.7-0.6,1-1.7,1-3.3V42.3z"/>
	<path class="st0" d="M241.1,53.3V37.6c0-3.6-2.3-4.8-4.3-4.8c-2,0-4.4,1.2-4.4,4.8v15.8h-6.5V27.3h6.4v2.4c1.7-1.8,4.1-2.7,6.5-2.7
		c2.6,0,4.7,0.9,6.2,2.3c2.1,2.1,2.7,4.6,2.7,7.4v16.7H241.1z"/>
</g>
<g>
	<path class="st0" d="M255.5,34.3c-2,0-3.7-1.6-3.7-3.7c0-2,1.6-3.7,3.7-3.7c2,0,3.7,1.6,3.7,3.7C259.2,32.7,257.5,34.3,255.5,34.3z
		 M255.5,27.8c-1.6,0-2.8,1.2-2.8,2.9c0,1.6,1.2,2.9,2.8,2.9c1.6,0,2.8-1.2,2.8-2.9C258.3,29,257.1,27.8,255.5,27.8z M256.2,32.6
		l-0.7-1.5H255v1.5h-0.9v-3.9h1.6c0.8,0,1.3,0.6,1.3,1.2c0,0.5-0.3,0.9-0.7,1l0.8,1.6H256.2z M255.6,29.4H255v1h0.6
		c0.3,0,0.5-0.2,0.5-0.5C256.2,29.6,256,29.4,255.6,29.4z"/>
</g>
<g>
	<path class="st1" d="M60.7,68.6c-0.3,0.3-0.9,0.6-1.6,0.6c-0.7,0-1.3-0.2-1.9-0.9v3.9h-0.7v-9.6h0.7v0.8c0.6-0.8,1.2-0.9,1.9-0.9
		c0.7,0,1.3,0.2,1.6,0.6c0.7,0.7,0.8,1.7,0.8,2.8C61.6,66.9,61.4,68,60.7,68.6z M59.1,63.1c-1.6,0-1.8,1.4-1.8,2.7
		c0,1.3,0.2,2.7,1.8,2.7c1.6,0,1.8-1.4,1.8-2.7C60.9,64.5,60.6,63.1,59.1,63.1z"/>
	<path class="st1" d="M65.6,63.1c-1.1,0-1.7,0.9-1.7,2v4h-0.7v-6.5h0.7v0.9c0.4-0.6,1.1-0.9,1.9-0.9c0.6,0,1.1,0.1,1.6,0.6l-0.5,0.5
		C66.4,63.3,66.1,63.1,65.6,63.1z"/>
	<path class="st1" d="M71.6,68.5c-0.5,0.5-1.1,0.7-1.8,0.7c-0.7,0-1.3-0.2-1.8-0.7c-0.7-0.7-0.8-1.7-0.8-2.6c0-0.9,0.1-1.9,0.8-2.6
		c0.5-0.5,1.1-0.7,1.8-0.7c0.7,0,1.3,0.2,1.8,0.7c0.7,0.7,0.8,1.7,0.8,2.6C72.4,66.8,72.3,67.8,71.6,68.5z M71.2,63.7
		c-0.4-0.4-0.8-0.6-1.3-0.6c-0.5,0-1,0.2-1.3,0.6c-0.5,0.5-0.6,1.4-0.6,2.2c0,0.8,0,1.6,0.6,2.2c0.4,0.4,0.8,0.6,1.3,0.6
		c0.5,0,1-0.2,1.3-0.6c0.5-0.5,0.6-1.4,0.6-2.2C71.7,65.1,71.7,64.2,71.2,63.7z"/>
	<path class="st1" d="M74.1,67.4v-4.3h-0.9v-0.5h0.9v-2.1h0.7v2.1h1.5v0.5h-1.5v4.3c0,0.7,0.3,1.1,1,1.1h0.5v0.6h-0.6
		C74.7,69.1,74.1,68.4,74.1,67.4z"/>
	<path class="st1" d="M80.1,68.6c0.8,0,1.2-0.2,1.8-0.8l0.5,0.4c-0.7,0.7-1.3,1-2.3,1c-1.8,0-2.8-1.2-2.8-3.3c0-2.1,1-3.3,2.6-3.3
		c1.6,0,2.6,1.2,2.6,3.2V66H78C78,67.7,78.7,68.6,80.1,68.6z M81.6,64.2c-0.3-0.7-0.9-1.1-1.7-1.1c-0.8,0-1.4,0.4-1.7,1.1
		C78,64.7,78,64.8,78,65.5h3.8C81.8,64.8,81.7,64.6,81.6,64.2z"/>
	<path class="st1" d="M86.5,69.2c-1.8,0-2.9-1.3-2.9-3.3c0-2.1,1.1-3.3,2.9-3.3c0.9,0,1.5,0.2,2.1,1L88.2,64c-0.6-0.6-1-0.8-1.7-0.8
		c-0.7,0-1.3,0.3-1.7,0.9c-0.3,0.5-0.4,1-0.4,1.9c0,0.9,0.1,1.4,0.4,1.9c0.4,0.6,1,0.9,1.7,0.9c0.7,0,1.1-0.2,1.7-0.8l0.5,0.4
		C88,69,87.4,69.2,86.5,69.2z"/>
	<path class="st1" d="M90.2,67.4v-4.3h-0.9v-0.5h0.9v-2.1h0.7v2.1h1.5v0.5h-1.5v4.3c0,0.7,0.3,1.1,1,1.1h0.5v0.6h-0.6
		C90.7,69.1,90.2,68.4,90.2,67.4z"/>
	<path class="st1" d="M93.6,59.5h0.8v0.8h-0.8V59.5z M93.7,62.6h0.7v6.5h-0.7V62.6z"/>
	<path class="st1" d="M100.7,65.1c0-1.3-0.6-1.9-1.8-1.9c-1.2,0-1.8,0.7-1.8,1.9v4h-0.7v-6.5H97v0.8c0.5-0.6,1.1-0.8,1.9-0.8
		c0.7,0,1.3,0.2,1.7,0.6c0.4,0.4,0.7,1,0.7,1.8v4.2h-0.7V65.1z"/>
	<path class="st1" d="M105.2,72.3c-1,0-1.5-0.3-2.1-0.9l0.5-0.5c0.5,0.5,0.9,0.7,1.7,0.7c1.4,0,2-1,2-2.3v-1.2
		c-0.6,0.8-1.2,0.9-1.9,0.9c-0.7,0-1.3-0.2-1.6-0.6c-0.7-0.7-0.8-1.7-0.8-2.8c0-1,0.2-2.1,0.8-2.8c0.3-0.3,0.9-0.6,1.6-0.6
		c0.7,0,1.3,0.2,1.9,0.9v-0.8h0.7v6.9C107.9,71.1,106.9,72.3,105.2,72.3z M105.3,63.1c-1.6,0-1.8,1.4-1.8,2.7c0,1.3,0.2,2.7,1.8,2.7
		c1.6,0,1.8-1.4,1.8-2.7C107.2,64.5,106.9,63.1,105.3,63.1z"/>
	<path class="st1" d="M115.1,69.2c-1.8,0-2.9-1.3-2.9-3.3c0-2.1,1.1-3.3,2.9-3.3c0.9,0,1.5,0.2,2.1,1l-0.5,0.4
		c-0.6-0.6-1-0.8-1.7-0.8c-0.7,0-1.3,0.3-1.7,0.9c-0.3,0.5-0.4,1-0.4,1.9c0,0.9,0.1,1.4,0.4,1.9c0.4,0.6,1,0.9,1.7,0.9
		c0.7,0,1.1-0.2,1.7-0.8l0.5,0.4C116.5,69,115.9,69.2,115.1,69.2z"/>
	<path class="st1" d="M122.3,68.5c-0.5,0.5-1.1,0.7-1.8,0.7c-0.7,0-1.3-0.2-1.8-0.7c-0.7-0.7-0.8-1.7-0.8-2.6c0-0.9,0.1-1.9,0.8-2.6
		c0.5-0.5,1.1-0.7,1.8-0.7c0.7,0,1.3,0.2,1.8,0.7c0.7,0.7,0.8,1.7,0.8,2.6C123.2,66.8,123,67.8,122.3,68.5z M121.9,63.7
		c-0.4-0.4-0.8-0.6-1.3-0.6c-0.5,0-1,0.2-1.3,0.6c-0.5,0.5-0.6,1.4-0.6,2.2c0,0.8,0,1.6,0.6,2.2c0.4,0.4,0.8,0.6,1.3,0.6
		c0.5,0,1-0.2,1.3-0.6c0.5-0.5,0.6-1.4,0.6-2.2C122.5,65.1,122.4,64.2,121.9,63.7z"/>
	<path class="st1" d="M129,65.1c0-1.3-0.6-1.9-1.8-1.9c-1.2,0-1.8,0.7-1.8,1.9v4h-0.7v-6.5h0.7v0.8c0.5-0.6,1.1-0.8,1.9-0.8
		c0.7,0,1.3,0.2,1.7,0.6c0.4,0.4,0.7,1,0.7,1.8v4.2H129V65.1z"/>
	<path class="st1" d="M134.1,69.2c-1.8,0-2.9-1.3-2.9-3.3c0-2.1,1.1-3.3,2.9-3.3c0.9,0,1.5,0.2,2.1,1l-0.5,0.4
		c-0.6-0.6-1-0.8-1.7-0.8c-0.7,0-1.3,0.3-1.7,0.9c-0.3,0.5-0.4,1-0.4,1.9c0,0.9,0.1,1.4,0.4,1.9c0.4,0.6,1,0.9,1.7,0.9
		c0.7,0,1.1-0.2,1.7-0.8l0.5,0.4C135.5,69,135,69.2,134.1,69.2z"/>
	<path class="st1" d="M140,63.1c-1.1,0-1.7,0.9-1.7,2v4h-0.7v-6.5h0.7v0.9c0.4-0.6,1.1-0.9,1.9-0.9c0.6,0,1.1,0.1,1.6,0.6l-0.5,0.5
		C140.8,63.3,140.5,63.1,140,63.1z"/>
	<path class="st1" d="M144.4,68.6c0.8,0,1.2-0.2,1.8-0.8l0.5,0.4c-0.7,0.7-1.3,1-2.3,1c-1.8,0-2.8-1.2-2.8-3.3c0-2.1,1-3.3,2.6-3.3
		c1.6,0,2.6,1.2,2.6,3.2V66h-4.5C142.3,67.7,143,68.6,144.4,68.6z M145.9,64.2c-0.3-0.7-0.9-1.1-1.7-1.1s-1.4,0.4-1.7,1.1
		c-0.1,0.4-0.2,0.6-0.2,1.2h3.8C146.1,64.8,146.1,64.6,145.9,64.2z"/>
	<path class="st1" d="M148.5,67.4v-4.3h-0.9v-0.5h0.9v-2.1h0.7v2.1h1.5v0.5h-1.5v4.3c0,0.7,0.3,1.1,1,1.1h0.5v0.6h-0.6
		C149.1,69.1,148.5,68.4,148.5,67.4z"/>
	<path class="st1" d="M154.5,68.6c0.8,0,1.2-0.2,1.8-0.8l0.5,0.4c-0.7,0.7-1.3,1-2.3,1c-1.8,0-2.8-1.2-2.8-3.3c0-2.1,1-3.3,2.6-3.3
		c1.6,0,2.6,1.2,2.6,3.2V66h-4.5C152.3,67.7,153.1,68.6,154.5,68.6z M155.9,64.2c-0.3-0.7-0.9-1.1-1.7-1.1s-1.4,0.4-1.7,1.1
		c-0.1,0.4-0.2,0.6-0.2,1.2h3.8C156.1,64.8,156.1,64.6,155.9,64.2z"/>
	<path class="st1" d="M162.1,69.1h-0.7v-6h-0.9v-0.5h0.9v-1.4c0-1,0.5-1.7,1.6-1.7h0.6v0.6h-0.5c-0.7,0-1,0.4-1,1.1v1.4h1.5v0.5
		h-1.5V69.1z M165.2,67.4v-7.9h0.7v7.9c0,0.7,0.2,1.1,1,1.1h0.5v0.6h-0.6C165.7,69.1,165.2,68.5,165.2,67.4z"/>
	<path class="st1" d="M172.4,68.5c-0.5,0.5-1.1,0.7-1.8,0.7c-0.7,0-1.3-0.2-1.8-0.7c-0.7-0.7-0.8-1.7-0.8-2.6c0-0.9,0.1-1.9,0.8-2.6
		c0.5-0.5,1.1-0.7,1.8-0.7c0.7,0,1.3,0.2,1.8,0.7c0.7,0.7,0.8,1.7,0.8,2.6C173.2,66.8,173.1,67.8,172.4,68.5z M172,63.7
		c-0.4-0.4-0.8-0.6-1.3-0.6c-0.5,0-1,0.2-1.3,0.6c-0.5,0.5-0.6,1.4-0.6,2.2c0,0.8,0,1.6,0.6,2.2c0.4,0.4,0.8,0.6,1.3,0.6
		c0.5,0,1-0.2,1.3-0.6c0.5-0.5,0.6-1.4,0.6-2.2C172.6,65.1,172.5,64.2,172,63.7z"/>
	<path class="st1" d="M178.9,68.5c-0.5,0.5-1.1,0.7-1.8,0.7c-0.7,0-1.3-0.2-1.8-0.7c-0.7-0.7-0.8-1.7-0.8-2.6c0-0.9,0.1-1.9,0.8-2.6
		c0.5-0.5,1.1-0.7,1.8-0.7c0.7,0,1.3,0.2,1.8,0.7c0.7,0.7,0.8,1.7,0.8,2.6C179.7,66.8,179.5,67.8,178.9,68.5z M178.4,63.7
		c-0.4-0.4-0.8-0.6-1.3-0.6c-0.5,0-1,0.2-1.3,0.6c-0.5,0.5-0.6,1.4-0.6,2.2c0,0.8,0,1.6,0.6,2.2c0.4,0.4,0.8,0.6,1.3,0.6
		c0.5,0,1-0.2,1.3-0.6c0.5-0.5,0.6-1.4,0.6-2.2C179,65.1,178.9,64.2,178.4,63.7z"/>
	<path class="st1" d="M183.7,63.1c-1.1,0-1.7,0.9-1.7,2v4h-0.7v-6.5h0.7v0.9c0.4-0.6,1.1-0.9,1.9-0.9c0.6,0,1.1,0.1,1.6,0.6
		l-0.5,0.5C184.5,63.3,184.2,63.1,183.7,63.1z"/>
	<path class="st1" d="M187.9,69.2c-1.1,0-2-0.3-2.6-0.9l0.5-0.5c0.5,0.5,1.2,0.8,2.1,0.8c1.3,0,2-0.4,2-1.3c0-0.7-0.4-1-1.2-1.1
		l-1.1-0.1c-1.3-0.1-2-0.7-2-1.7c0-1.1,0.9-1.8,2.3-1.8c0.9,0,1.7,0.3,2.3,0.7l-0.5,0.5c-0.5-0.4-1.1-0.6-1.8-0.6
		c-1.1,0-1.7,0.4-1.7,1.3c0,0.7,0.4,1,1.3,1.1l1.1,0.1c1.1,0.1,1.9,0.4,1.9,1.7C190.5,68.5,189.5,69.2,187.9,69.2z"/>
	<path class="st1" d="M200,69.1l-1.8-5.4l-1.8,5.4h-0.7l-2.1-6.5h0.8l1.7,5.7l1.9-5.7h0.7l1.9,5.7l1.7-5.7h0.8l-2.1,6.5H200z"/>
	<path class="st1" d="M207.5,68.5c-0.5,0.5-1.1,0.7-1.8,0.7c-0.7,0-1.3-0.2-1.8-0.7c-0.7-0.7-0.8-1.7-0.8-2.6c0-0.9,0.1-1.9,0.8-2.6
		c0.5-0.5,1.1-0.7,1.8-0.7c0.7,0,1.3,0.2,1.8,0.7c0.7,0.7,0.8,1.7,0.8,2.6C208.4,66.8,208.2,67.8,207.5,68.5z M207.1,63.7
		c-0.4-0.4-0.8-0.6-1.3-0.6c-0.5,0-1,0.2-1.3,0.6c-0.5,0.5-0.6,1.4-0.6,2.2c0,0.8,0,1.6,0.6,2.2c0.4,0.4,0.8,0.6,1.3,0.6
		c0.5,0,1-0.2,1.3-0.6c0.5-0.5,0.6-1.4,0.6-2.2C207.7,65.1,207.6,64.2,207.1,63.7z"/>
	<path class="st1" d="M212.3,63.1c-1.1,0-1.7,0.9-1.7,2v4h-0.7v-6.5h0.7v0.9c0.4-0.6,1.1-0.9,1.9-0.9c0.6,0,1.1,0.1,1.6,0.6
		l-0.5,0.5C213.2,63.3,212.9,63.1,212.3,63.1z"/>
	<path class="st1" d="M214.7,67.4v-7.9h0.7v7.9c0,0.7,0.2,1.1,1,1.1h0.5v0.6h-0.6C215.2,69.1,214.7,68.5,214.7,67.4z"/>
	<path class="st1" d="M221.9,68.3c-0.6,0.8-1.2,0.9-1.9,0.9c-0.7,0-1.3-0.2-1.6-0.6c-0.7-0.7-0.8-1.7-0.8-2.8c0-1,0.2-2.1,0.8-2.8
		c0.3-0.3,0.9-0.6,1.6-0.6c0.7,0,1.3,0.2,1.9,0.9v-3.9h0.7v9.6h-0.7V68.3z M220.1,63.1c-1.6,0-1.8,1.4-1.8,2.7
		c0,1.3,0.2,2.7,1.8,2.7c1.6,0,1.8-1.4,1.8-2.7C221.9,64.5,221.7,63.1,220.1,63.1z"/>
	<path class="st1" d="M229.9,69.1l-1.8-5.4l-1.8,5.4h-0.7l-2.1-6.5h0.8l1.7,5.7l1.9-5.7h0.7l1.9,5.7l1.7-5.7h0.8l-2.1,6.5H229.9z"/>
	<path class="st1" d="M233.4,59.5h0.8v0.8h-0.8V59.5z M233.5,62.6h0.7v6.5h-0.7V62.6z"/>
	<path class="st1" d="M240.1,68.3c-0.6,0.8-1.2,0.9-1.9,0.9c-0.7,0-1.3-0.2-1.6-0.6c-0.7-0.7-0.8-1.7-0.8-2.8c0-1,0.2-2.1,0.8-2.8
		c0.3-0.3,0.9-0.6,1.6-0.6c0.7,0,1.3,0.2,1.9,0.9v-3.9h0.7v9.6h-0.7V68.3z M238.3,63.1c-1.6,0-1.8,1.4-1.8,2.7
		c0,1.3,0.2,2.7,1.8,2.7s1.8-1.4,1.8-2.7C240.1,64.5,239.9,63.1,238.3,63.1z"/>
	<path class="st1" d="M245.2,68.6c0.8,0,1.2-0.2,1.8-0.8l0.5,0.4c-0.7,0.7-1.3,1-2.3,1c-1.8,0-2.8-1.2-2.8-3.3c0-2.1,1-3.3,2.6-3.3
		c1.6,0,2.6,1.2,2.6,3.2V66H243C243,67.7,243.8,68.6,245.2,68.6z M246.6,64.2c-0.3-0.7-0.9-1.1-1.7-1.1c-0.8,0-1.4,0.4-1.7,1.1
		c-0.1,0.4-0.2,0.6-0.2,1.2h3.8C246.8,64.8,246.8,64.6,246.6,64.2z"/>
</g>
<g>
	<path class="st2" d="M2.7,15.6c-0.1,0.9-0.4,1.9-0.9,3C0.7,20.8,0.1,23,0,25c0,0.1,0,0.3,0,0.4c0.1-1,0.2-2.3,0.3-3.3
		c0.4-2.3,0.5-2.6,1.1-4.5c0.8-2.1,0.8-2.3,1.6-3.7l0.7-1.3C3.1,13.4,2.8,14.5,2.7,15.6"/>
	<path class="st2" d="M12.9,5.5c0.1,0.6-0.3,1.3-1.4,2.1c-1.4,1-2.7,2.1-3.9,3.2c-0.9,0.9-1.8,1.8-2.6,2.8c-0.9,1.1-1.2,0.8-1.2,0.6
		c0-0.1,0-0.2,0-0.2c0.1-1.2,0.4-2.3,1.1-3.2C6,9.1,6.1,9,6.8,8.2c0.4-0.4,0.9-0.9,1.3-1.3c1.5-1.3,1.5-1.3,2.3-1.9
		c0.6-0.4,1.4-1,2-1.4C12.2,3.7,12.4,4.3,12.9,5.5"/>
	<path class="st2" d="M26.3,0.5c0.5,0.4,0.1,0.7-1,1c-2.7,0.5-5.4,1.4-8.1,2.7c-1.2,0.5-2,0.5-2.4,0.1c-0.6-1.1-0.9-1.6-1-1.7l0,0
		c0.4-0.2,0.8-0.4,1.2-0.6c1.6-0.7,1.6-0.7,2.5-1c1.7-0.6,1.8-0.6,2.7-0.8c0.8-0.2,2-0.4,2.8-0.5C24.1-0.4,25.2-0.2,26.3,0.5"/>
	<path class="st2" d="M4.3,38.4c0.8,1,1.4,1.9,1.8,2.8c0.6,1.9,1.8,3.6,3.4,5l0.1,0.1l-0.9-0.7C7,43.8,6.6,43.4,5,41.3
		c-0.5-0.8-1.2-1.9-1.7-2.7c-1.4-2.8-1.4-2.8-2.3-5.7l-0.4-1.7c0,0.2,0.1,0.4,0.1,0.6C1,32.9,1.4,34.1,2,35.2
		C2.7,36.3,3.4,37.4,4.3,38.4"/>
	<path class="st2" d="M6.9,26.6c0.7,1.1,0.8,2.2,0.4,3.3c-1.1,2.3-1.7,4.6-1.8,6.7c-0.1,0.9-0.6,0.9-1.4,0.2c-0.9-1-1.7-2.1-2.3-3.2
		c-0.6-1.1-1.1-2.3-1.4-3.5c-0.3-1.1-0.4-2.2-0.3-3.3c0.1-2.2,0.7-4.4,1.8-6.7c0.5-0.9,0.9-1,1.3-0.2c0.3,1,0.8,2.1,1.4,3.3
		C5.3,24.3,6.1,25.5,6.9,26.6"/>
	<path class="st2" d="M18.2,15.4c0.5,1.2,0.3,2.2-0.8,3.1c-1.4,1-2.8,2.1-4.1,3.4c-1,0.9-1.9,1.9-2.7,2.9c-0.9,0.9-1.7,0.9-2.6,0
		c-0.8-1.1-1.6-2.3-2.2-3.4c-0.6-1.1-1.1-2.2-1.5-3.2c-0.2-1,0-2,0.8-3.1c0.8-1,1.7-1.9,2.7-2.9c1.3-1.2,2.6-2.3,4.1-3.4
		c1.2-0.7,2-0.7,2.5,0c0.5,0.9,1,1.9,1.6,3.1C16.8,13,17.4,14.2,18.2,15.4"/>
	<path class="st2" d="M32.9,10c0.3,1.2-0.1,1.9-1.3,2.3c-2.8,0.5-5.6,1.5-8.4,2.8c-1.3,0.5-2.3,0.2-3-0.9c-0.7-1.3-1.4-2.5-2-3.6
		c-0.6-1.1-1.2-2.2-1.7-3.1c-0.3-0.9,0.1-1.6,1.3-2.2c2.7-1.3,5.6-2.2,8.4-2.8c1.3-0.2,2.3,0.1,3,0.8c0.7,0.8,1.3,1.8,1.9,3
		C31.8,7.5,32.4,8.7,32.9,10"/>
	<path class="st2" d="M44.7,8.4c0.6,1.1,1.1,2.4,1.5,3.7c0.2,1.1-0.1,1.5-1.1,1.2c-2.2-0.9-4.7-1.4-7.3-1.4
		c-1.2-0.1-2.1-0.8-2.7-1.9c-0.5-1.3-1.1-2.6-1.7-3.7c-0.6-1.1-1.3-2.1-2-3C31,2.4,31.3,2,32.4,2C35,2,37.5,2.5,39.7,3.4
		c1.1,0.5,2,1.1,2.8,1.9C43.3,6.2,44,7.2,44.7,8.4"/>
	<path class="st2" d="M21.8,50.9c1.7-0.1,2.5,0.1,2.7,0.2c1.4,0.5,3,0.7,4.7,0.7c0.3,0,0.5,0,0.6,0.1c0,0,0,0.1,0,0.1
		c-0.1,0-0.2,0.1-0.3,0.1c-0.3,0.1-0.5,0.1-0.8,0.1c-0.8,0-1.8,0.1-2.5,0.1c-2.1-0.1-2.3-0.1-3.8-0.3c-2.2-0.4-2.5-0.5-4.3-1
		c-1-0.4-2.3-0.9-3.2-1.3c0.1,0,0.2,0.1,0.3,0.1C17.2,50.7,19.5,51.1,21.8,50.9"/>
	<path class="st2" d="M17.2,45.1c1.8,0.4,2.3,0.9,2.4,1.3c0.4,1.2,1.1,2.3,2.1,3.1c0.4,0.4,0,0.7-1,0.8c-2.5,0.1-4.8-0.3-7-1.3
		c-1-0.5-1.9-1.1-2.8-1.7c-1.6-1.3-2.7-3-3.3-4.8C7.5,41.6,8,41.5,9,42.1C11.4,43.5,14.2,44.5,17.2,45.1"/>
	<path class="st2" d="M18.9,37c1.7,1.2,1.5,2,1.5,2.2c-0.7,1.4-1.1,2.9-1.2,4.2C19.1,44,18.3,44.2,17,44c-3-0.7-5.8-1.9-8.2-3.3
		C7.8,39.9,7.2,39,7.1,38c0.1-2.1,0.7-4.3,1.8-6.5c0.6-0.9,1.4-0.9,2.5-0.1C13.6,33.4,16.2,35.3,18.9,37"/>
	<path class="st2" d="M26.6,29.4c0.7,1.2,0.7,2.1,0.1,2.7c-0.9,0.6-1.8,1.3-2.6,2.1c-0.6,0.6-1.2,1.2-1.7,1.8
		c-0.6,0.6-1.5,0.5-2.7-0.3c-2.6-1.8-5.1-3.9-7.3-6c-0.9-1.1-1-2.1-0.3-3.2c0.8-0.9,1.6-1.9,2.6-2.8c1.2-1.2,2.5-2.3,3.9-3.2
		c1.2-0.7,2.1-0.4,3,0.7C23.2,23.9,24.9,26.7,26.6,29.4"/>
	<path class="st2" d="M36.7,25.6c0.1,1.4-0.3,2.2-1.1,2.5c-1.8,0.3-3.5,0.9-5.3,1.7c-0.8,0.2-1.6-0.2-2.4-1.4
		c-1.5-2.8-3.1-5.6-4.5-8.4c-0.6-1.3-0.3-2.3,0.8-3c2.7-1.2,5.4-2.1,8.1-2.7c1.3-0.1,2.1,0.5,2.6,1.8C35.8,19.3,36.4,22.5,36.7,25.6
		"/>
</g>
</svg>
